<svg xmlns:xlink="http://www.w3.org/1999/xlink" xmlns="http://www.w3.org/2000/svg" width="1920" height="120" viewBox="0 0 1920 120" fill="none">
            <path d="M995.564 62.8463V119.912H1049.21V107.042H1012.03V62.8463H995.564Z" fill="#FF6138"/>
            <path d="M1365.72 106.487C1377.76 106.487 1383.78 101.425 1383.78 91.3014C1383.78 81.2846 1378 76.2762 1366.45 76.2762H1358.8V106.487H1365.72ZM1246.28 119.91V62.8463H1366.11C1377.51 62.8463 1386.16 65.2571 1392.05 70.0788C1397.94 74.9004 1400.88 82.0006 1400.88 91.3792C1401.1 95.3779 1400.38 99.3723 1398.76 103.039C1397.15 106.705 1394.7 109.94 1391.61 112.481C1385.43 117.437 1376.66 119.915 1365.32 119.915L1246.28 119.91Z" fill="#FF6138"/>
            <path d="M1155.47 76.1205L1163.69 96.5819H1147.23L1155.47 76.1205ZM1076.5 62.8463L1051.63 119.91H1138.03L1142.34 109.283H1168.64L1172.87 119.91H1189.9L1165.05 62.8463H1076.5Z" fill="#FF6138"/>
            <path d="M1242.22 120V62.8465H1228.99V89.7968C1225.75 82.2026 1221.78 70.9984 1215.66 65.8234C1212.6 63.4273 1208.86 62.0798 1204.98 61.9811C1201.1 61.8824 1197.29 63.0379 1194.12 65.2758C1183.22 72.6966 1181.25 93.4118 1185.62 104.671C1189.58 114.853 1199.69 120.154 1210.29 119.912C1210.29 114.783 1210.29 104.528 1210.29 104.528C1210.29 104.528 1197.66 105.166 1197.66 90.9047C1197.66 80.6627 1204.5 76.7538 1208.98 79.8688C1211.67 81.7379 1215.15 90.0254 1215.15 90.0254C1215.15 90.0254 1219.9 100.403 1222.26 105.576C1224.45 110.381 1226.79 115.197 1228.98 120H1242.22Z" fill="#FF6138"/>
            <path d="M1208.56 1.73597H1151.48V14.6057H1171.79V58.8043H1188.25V14.6057H1208.56V1.73597Z" fill="#FF6138"/>
            <path d="M1148.04 14.6057V1.73597H1080.7V58.8043H1148.03V45.9371H1097.17V36.5543H1143.42V22.8756H1097.17V14.6057H1148.04Z" fill="#FF6138"/>
            <path d="M995.105 58.8043V25.5536L979.401 58.8043H966.331L950.63 25.7144V58.8043H934.505V1.73597H954.619L973.207 40.5812L991.711 1.73597H1076.66V58.8043H995.105Z" fill="#FF6138"/>
            <path d="M1256.24 25.3952C1253.79 26.6373 1251.04 27.1895 1248.3 26.993H1233.51V13.5681H1248.46C1251.19 13.3561 1253.92 13.8957 1256.36 15.1281C1257.16 15.6943 1257.8 16.4605 1258.22 17.3507C1258.63 18.2409 1258.8 19.2241 1258.72 20.2026C1258.8 21.2107 1258.62 22.2226 1258.18 23.1352C1257.75 24.0479 1257.08 24.8286 1256.24 25.3977V25.3952ZM1274.66 54.3125L1264.82 36.2678C1267.89 35.0017 1270.54 32.8774 1272.44 30.1482C1274.19 27.3043 1275.05 24.0087 1274.93 20.6749C1274.93 8.04555 1266.4 1.7317 1249.34 1.73337H1212.04V58.8017H1233.51V39.4582H1249.1L1258.14 58.8017H1274.67L1274.66 54.3125Z" fill="#FF6138"/>
            <path d="M1306.95 14.4875C1310.07 14.487 1313.13 15.4124 1315.72 17.1465C1318.32 18.8807 1320.34 21.3458 1321.54 24.23C1322.73 27.1142 1323.04 30.288 1322.43 33.35C1321.83 36.412 1320.32 39.2246 1318.11 41.4322C1315.91 43.6397 1313.09 45.143 1310.03 45.752C1306.97 46.3609 1303.8 46.0481 1300.91 44.8532C1298.03 43.6582 1295.56 41.6348 1293.83 39.0388C1292.1 36.4428 1291.17 33.3908 1291.17 30.2688C1291.17 26.0848 1292.84 22.0735 1295.8 19.1149C1298.76 16.1564 1302.77 14.4922 1306.95 14.4875ZM1306.95 60.5376C1312.94 60.5381 1318.79 58.7633 1323.77 55.4376C1328.75 52.112 1332.63 47.3848 1334.92 41.8539C1337.21 36.3231 1337.81 30.2369 1336.64 24.3652C1335.47 18.4935 1332.59 13.0998 1328.36 8.86643C1324.13 4.63301 1318.73 1.74994 1312.86 0.581804C1306.99 -0.586328 1300.9 0.0129485 1295.37 2.30385C1289.84 4.59475 1285.11 8.47438 1281.79 13.4521C1278.46 18.4298 1276.69 24.2821 1276.69 30.2688C1276.69 38.2948 1279.88 45.9903 1285.56 51.6665C1291.23 57.3427 1298.93 60.5359 1306.95 60.5452" fill="#FF6138"/>
            <path d="M1428.79 62.8463V119.912H1482.44V107.042H1445.25V62.8463H1428.79Z" fill="#FF6138"/>
            <path d="M2018.66 106.487C2030.69 106.487 2036.71 101.425 2036.72 91.3014C2036.72 81.2846 2030.94 76.2762 2019.38 76.2762H2011.74V106.487H2018.66ZM1733.5 119.91V62.8463H2019.06C2030.46 62.8463 2039.11 65.2571 2045 70.0788C2050.89 74.9004 2053.83 82.0006 2053.83 91.3792C2054.05 95.3779 2053.33 99.3723 2051.72 103.039C2050.1 106.705 2047.65 109.94 2044.56 112.481C2038.38 117.437 2029.61 119.915 2018.27 119.915L1733.5 119.91Z" fill="#FF6138"/>
            <path d="M1642.7 76.1207L1650.94 96.5821H1634.47L1642.7 76.1207ZM1509.74 62.8541L1484.87 119.917H1625.27L1629.59 109.291H1655.88L1660.11 119.917H1677.13L1652.28 62.8541H1509.74Z" fill="#FF6138"/>
            <path d="M1729.46 120V62.8465H1716.22V89.7968C1712.98 82.2026 1709.01 70.9984 1702.89 65.8234C1699.84 63.4273 1696.09 62.0798 1692.22 61.9811C1688.34 61.8824 1684.53 63.0379 1681.36 65.2758C1670.45 72.6966 1668.48 93.4118 1672.86 104.671C1676.81 114.853 1686.93 120.154 1697.52 119.912C1697.52 114.783 1697.52 104.528 1697.52 104.528C1697.52 104.528 1684.9 105.166 1684.9 90.9047C1684.9 80.6627 1691.74 76.7538 1696.22 79.8688C1698.91 81.7379 1702.38 90.0254 1702.38 90.0254C1702.38 90.0254 1707.14 100.403 1709.49 105.576C1711.68 110.381 1714.03 115.197 1716.22 120H1729.46Z" fill="#FF6138"/>
            <path d="M1860.58 1.73597H1803.5V14.6057H1823.81V58.8043H1840.27V14.6057H1860.58V1.73597Z" fill="#FF6138"/>
            <path d="M1800.06 14.6057V1.73597H1593.07V58.8043H1800.05V45.9371H1609.53V36.5543H1795.44V22.8756H1609.53V14.6057H1800.06Z" fill="#FF6138"/>
            <path d="M1422.74 58.8043V25.5536L1407.04 58.8043H1393.97L1378.27 25.7144V58.8043H1362.14V1.73597H1382.26L1400.84 40.5812L1419.35 1.73597H1589.02V58.8043H1422.74Z" fill="#FF6138"/>
            <path d="M1960.4 25.3952C1957.94 26.6372 1955.19 27.1894 1952.45 26.993H1937.66V13.5681H1952.61C1955.34 13.3564 1958.07 13.8968 1960.51 15.1306C1961.32 15.6967 1961.96 16.4626 1962.37 17.3524C1962.78 18.2421 1962.96 19.2247 1962.88 20.2026C1962.96 21.2108 1962.77 22.2228 1962.34 23.1357C1961.9 24.0487 1961.23 24.83 1960.4 25.4003V25.3952ZM1978.82 54.315L1968.97 36.2703C1972.05 35.0048 1974.7 32.8794 1976.6 30.1482C1978.34 27.3042 1979.21 24.0087 1979.09 20.6749C1979.09 8.04555 1970.56 1.7317 1953.5 1.73337H1864.06V58.8017H1937.67V39.4582H1953.26L1962.31 58.8017H1978.84L1978.82 54.315Z" fill="#FF6138"/>
            <path d="M2011.11 14.4875C2014.23 14.4875 2017.28 15.4133 2019.88 17.1478C2022.47 18.8822 2024.5 21.3475 2025.69 24.2317C2026.89 27.116 2027.2 30.2897 2026.59 33.3515C2025.98 36.4133 2024.48 39.2257 2022.27 41.433C2020.06 43.6404 2017.25 45.1434 2014.19 45.7521C2011.12 46.3609 2007.95 46.048 2005.07 44.8529C2002.18 43.6579 1999.72 41.6345 1997.98 39.0385C1996.25 36.4425 1995.32 33.3907 1995.33 30.2688C1995.33 26.0844 1996.99 22.0727 1999.95 19.114C2002.91 16.1554 2006.92 14.4915 2011.11 14.4875ZM2011.11 60.5376C2017.1 60.5376 2022.95 58.7624 2027.93 55.4364C2032.9 52.1104 2036.78 47.3831 2039.07 41.8522C2041.36 36.3213 2041.96 30.2352 2040.8 24.3637C2039.63 18.4921 2036.75 13.0987 2032.51 8.86554C2028.28 4.63237 2022.89 1.74955 2017.01 0.58162C2011.14 -0.586308 2005.06 0.0131149 1999.53 2.30409C1993.99 4.59506 1989.27 8.47469 1985.94 13.4524C1982.62 18.4301 1980.84 24.2822 1980.84 30.2688C1980.85 38.2953 1984.04 45.9912 1989.71 51.6674C1995.39 57.3437 2003.08 60.5365 2011.11 60.5452" fill="#FF6138"/>
            <path d="M330.132 62.8463V119.912H383.778V107.042H346.596V62.8463H330.132Z" fill="#FF6138"/>
            <path d="M936.761 106.487C948.799 106.487 954.819 101.425 954.821 91.3014C954.821 81.2846 949.043 76.2762 937.487 76.2762H929.842V106.487H936.761ZM809.87 119.91V62.8463H937.158C948.558 62.8463 957.203 65.2571 963.093 70.0788C968.983 74.9004 971.927 82.0006 971.926 91.3792C972.146 95.3779 971.422 99.3723 969.81 103.039C968.199 106.705 965.746 109.94 962.651 112.481C956.473 117.437 947.71 119.915 936.364 119.915L809.87 119.91Z" fill="#FF6138"/>
            <path d="M719.059 76.1207L727.293 96.5821H710.831L719.059 76.1207ZM411.07 62.8541L386.212 119.917H701.637L705.955 109.291H732.25L736.483 119.917H753.505L728.653 62.8541H411.07Z" fill="#FF6138"/>
            <path d="M805.826 120V62.8465H792.587V89.7968C789.346 82.2026 785.38 70.9984 779.257 65.8234C776.205 63.4273 772.462 62.0798 768.582 61.9811C764.703 61.8824 760.896 63.0379 757.726 65.2758C746.821 72.6966 744.849 93.4118 749.225 104.671C753.181 114.853 763.293 120.154 773.889 119.912C773.889 114.783 773.889 104.528 773.889 104.528C773.889 104.528 761.268 105.166 761.268 90.9047C761.268 80.6627 768.104 76.7538 772.588 79.8688C775.278 81.7379 778.748 90.0254 778.748 90.0254C778.748 90.0254 783.508 100.403 785.862 105.576C788.05 110.381 790.399 115.197 792.584 120H805.826Z" fill="#FF6138"/>
            <path d="M642.751 1.73597H585.675V14.6057H605.983V58.8043H622.445V14.6057H642.751V1.73597Z" fill="#FF6138"/>
            <path d="M582.233 14.6057V1.73597H475.783V58.8043H582.213V45.9371H492.25V36.5543H577.605V22.8756H492.25V14.6057H582.233Z" fill="#FF6138"/>
            <path d="M418.118 58.8043V25.5536L402.417 58.8043H389.346L373.643 25.7144V58.8043H357.518V1.73597H377.632L396.22 40.5812L414.724 1.73597H471.74V58.8043H418.118Z" fill="#FF6138"/>
            <path d="M827.293 25.3952C824.838 26.6372 822.092 27.1894 819.347 26.993H804.558V13.5681H819.513C822.239 13.3567 824.97 13.8963 827.411 15.1281C828.213 15.6944 828.853 16.4607 829.267 17.351C829.682 18.2412 829.856 19.2243 829.772 20.2026C829.855 21.2104 829.669 22.222 829.233 23.1345C828.798 24.047 828.128 24.8279 827.293 25.3977V25.3952ZM845.715 54.3125L835.872 36.2678C838.944 35.0007 841.586 32.8763 843.484 30.1482C845.228 27.3043 846.093 24.0087 845.971 20.6749C845.971 8.04555 837.441 1.7317 820.382 1.73337H646.233V58.8017H804.558V39.4582H820.151L829.182 58.8017H845.715V54.3125Z" fill="#FF6138"/>
            <path d="M877.995 14.4875C881.117 14.487 884.169 15.4124 886.765 17.1465C889.361 18.8807 891.385 21.3458 892.579 24.23C893.774 27.1142 894.087 30.288 893.478 33.35C892.869 36.412 891.366 39.2246 889.158 41.4322C886.951 43.6397 884.138 45.143 881.076 45.752C878.014 46.3609 874.84 46.0481 871.956 44.8532C869.072 43.6582 866.607 41.6348 864.873 39.0388C863.139 36.4428 862.213 33.3908 862.214 30.2688C862.219 26.0848 863.883 22.0735 866.841 19.1149C869.8 16.1564 873.811 14.4922 877.995 14.4875ZM877.995 60.5376C883.982 60.5381 889.834 58.7633 894.812 55.4376C899.79 52.112 903.67 47.3848 905.962 41.8539C908.253 36.3231 908.853 30.2369 907.685 24.3652C906.518 18.4935 903.635 13.0998 899.402 8.86643C895.169 4.63301 889.775 1.74994 883.904 0.581804C878.032 -0.586328 871.946 0.0129485 866.415 2.30385C860.884 4.59475 856.156 8.47438 852.83 13.4521C849.504 18.4298 847.729 24.2821 847.729 30.2688C847.735 38.2948 850.926 45.9903 856.6 51.6665C862.275 57.3427 869.969 60.5359 877.995 60.5452" fill="#FF6138"/>
            <path d="M-112.97 62.8463V119.912H-59.3259V107.042H-96.5081V62.8463H-112.97Z" fill="#FF6138"/>
            <path d="M273.948 106.487C285.986 106.487 292.007 101.425 292.01 91.3014C292.01 81.2846 286.232 76.2762 274.677 76.2762H267.03V106.487H273.948ZM110.749 119.91V62.8463H274.345C285.748 62.8463 294.394 65.2571 300.283 70.0788C306.171 74.9004 309.116 82.0006 309.116 91.3792C309.336 95.3779 308.611 99.3723 307 103.039C305.388 106.705 302.936 109.94 299.841 112.481C293.661 117.437 284.898 119.915 273.551 119.915L110.749 119.91Z" fill="#FF6138"/>
            <path d="M19.9346 76.1205L28.1694 96.5819H11.7048L19.9346 76.1205ZM-32.029 62.8463L-56.8766 119.91H2.51042L6.8313 109.283H33.1234L37.3588 119.91H54.3786L29.5411 62.8463H-32.029Z" fill="#FF6138"/>
            <path d="M106.704 120V62.8465H93.4676V89.7968C90.2245 82.2026 86.2578 70.9984 80.1357 65.8234C77.0835 63.4273 73.3398 62.0798 69.4607 61.9811C65.5816 61.8824 61.7741 63.0379 58.6041 65.2758C47.6989 72.6966 45.7294 93.4118 50.103 104.671C54.0597 114.853 64.171 120.154 74.7672 119.912C74.7672 114.783 74.7672 104.528 74.7672 104.528C74.7672 104.528 62.1437 105.166 62.1437 90.9047C62.1437 80.6627 68.9793 76.7538 73.4635 79.8688C76.1514 81.7379 79.6232 90.0254 79.6232 90.0254C79.6232 90.0254 84.3963 100.403 86.7376 105.576C88.9282 110.381 91.2745 115.197 93.4601 120H106.704Z" fill="#FF6138"/>
            <path d="M98.1729 1.73597H41.0945V14.6057H61.4026V58.8043H77.8647V14.6057H98.1729V1.73597Z" fill="#FF6138"/>
            <path d="M37.6491 14.6057V1.73597H-39.936V58.8043H37.6315V45.9371H-23.4714V36.5543H33.0242V22.8756H-23.4714V14.6057H37.6491Z" fill="#FF6138"/>
            <path d="M-76.796 1.73597L-95.2954 40.5812L-113.885 1.73597H-134V58.8043H-117.875V25.7144L-102.174 58.8043H-89.1005L-73.3996 25.5561V58.8043H-43.9849V1.73597H-76.796Z" fill="#FF6138"/>
            <path d="M254.773 25.3953C252.319 26.637 249.573 27.1892 246.83 26.993H232.041V13.5682H246.99C249.717 13.3558 252.45 13.8954 254.891 15.1282C255.693 15.6945 256.333 16.4608 256.747 17.351C257.162 18.2413 257.336 19.2244 257.252 20.2027C257.335 21.2105 257.149 22.2221 256.713 23.1346C256.278 24.0471 255.608 24.828 254.773 25.3978V25.3953ZM273.194 54.3126L263.349 36.2679C266.427 35.0031 269.075 32.8785 270.976 30.1483C272.72 27.3044 273.585 24.0088 273.463 20.675C273.468 8.04731 264.938 1.73429 247.872 1.73597H101.64V58.8018H232.038V39.4583H247.628L256.672 58.8018H273.202L273.194 54.3126Z" fill="#FF6138"/>
            <path d="M305.488 14.4875C308.61 14.4875 311.662 15.4133 314.258 17.1478C316.853 18.8822 318.876 21.3475 320.071 24.2317C321.266 27.116 321.578 30.2897 320.969 33.3515C320.36 36.4133 318.856 39.2257 316.648 41.433C314.441 43.6404 311.628 45.1434 308.566 45.7521C305.504 46.3609 302.331 46.048 299.446 44.8529C296.562 43.6579 294.097 41.6345 292.363 39.0385C290.629 36.4425 289.704 33.3907 289.705 30.2688C289.709 26.0844 291.374 22.0727 294.333 19.114C297.292 16.1554 301.304 14.4915 305.488 14.4875ZM305.488 60.5376C311.475 60.5376 317.327 58.7624 322.305 55.4364C327.283 52.1104 331.162 47.3831 333.453 41.8522C335.744 36.3213 336.344 30.2352 335.176 24.3637C334.008 18.4921 331.125 13.0987 326.892 8.86554C322.659 4.63237 317.265 1.74955 311.394 0.58162C305.522 -0.586308 299.436 0.0131149 293.905 2.30409C288.374 4.59506 283.647 8.47469 280.321 13.4524C276.995 18.4301 275.22 24.2822 275.22 30.2688C275.226 38.2953 278.417 45.9912 284.092 51.6674C289.767 57.3437 297.462 60.5365 305.488 60.5452" fill="#FF6138"/>
        </svg>