<svg xmlns:xlink="http://www.w3.org/1999/xlink" xmlns="http://www.w3.org/2000/svg" width="960" height="60" viewBox="0 0 960 60" fill="none">
            <path d="M430.781 31.4231V59.9559H457.604V53.5211H439.013V31.4231H430.781Z" fill="#FF6138"/>
            <path d="M615.859 53.2435C621.878 53.2435 624.888 50.7125 624.89 45.6506C624.89 40.6422 622.001 38.138 616.223 38.138H612.399V53.2435H615.859ZM556.139 59.9547V31.4231H616.053C621.754 31.4231 626.077 32.6285 629.022 35.0393C631.967 37.4501 633.439 41.0002 633.438 45.6895C633.549 47.6889 633.186 49.686 632.381 51.5192C631.575 53.3523 630.349 54.9698 628.801 56.2405C625.712 58.7183 621.33 59.9572 615.656 59.9572L556.139 59.9547Z" fill="#FF6138"/>
            <path d="M510.731 38.0602L514.846 48.2908H506.614L510.731 38.0602ZM471.249 31.4231L458.814 59.9547H502.012L504.171 54.6415H517.319L519.436 59.9547H527.948L515.523 31.4231H471.249Z" fill="#FF6138"/>
            <path d="M554.11 60V31.4232H547.492V44.8983C545.872 41.1012 543.887 35.4991 540.826 32.9116C539.3 31.7136 537.428 31.0398 535.489 30.9905C533.549 30.9411 531.645 31.5189 530.06 32.6378C524.608 36.3482 523.623 46.7058 525.81 52.3355C527.789 57.4263 532.844 60.0766 538.142 59.956C538.142 57.3912 538.142 52.2639 538.142 52.2639C538.142 52.2639 531.83 52.5829 531.83 45.4522C531.83 40.3312 535.249 38.3768 537.49 39.9343C538.835 40.8688 540.571 45.0126 540.571 45.0126C540.571 45.0126 542.95 50.2014 544.128 52.7877C545.222 55.1905 546.395 57.5984 547.489 60H554.11Z" fill="#FF6138"/>
            <path d="M537.277 0.867982H508.739V7.30282H518.893V29.4021H527.123V7.30282H537.277V0.867982Z" fill="#FF6138"/>
            <path d="M507.021 7.30282V0.867982H473.348V29.4021H507.012V22.9685H481.582V18.2771H504.708V11.4378H481.582V7.30282H507.021Z" fill="#FF6138"/>
            <path d="M430.551 29.4021V12.7768L422.699 29.4021H416.164L408.314 12.8572V29.4021H400.251V0.867982H410.308L419.602 20.2906L428.854 0.867982H471.327V29.4021H430.551Z" fill="#FF6138"/>
            <path d="M561.118 12.6976C559.891 13.3186 558.518 13.5947 557.147 13.4964H549.752V6.78402H557.228C558.591 6.67802 559.957 6.94781 561.177 7.56404C561.578 7.84713 561.899 8.23024 562.106 8.67534C562.313 9.12043 562.401 9.61202 562.359 10.1013C562.4 10.6053 562.307 11.1113 562.089 11.5676C561.871 12.0239 561.536 12.4142 561.118 12.6988V12.6976ZM570.329 27.1562L565.408 18.1339C566.946 17.5008 568.269 16.4386 569.22 15.0741C570.092 13.6521 570.524 12.0043 570.463 10.3374C570.463 4.02276 566.198 0.865846 557.669 0.866683H539.018V29.4008H549.752V19.7291H557.547L562.069 29.4008H570.334L570.329 27.1562Z" fill="#FF6138"/>
            <path d="M586.474 7.24375C588.035 7.2435 589.561 7.70618 590.859 8.57325C592.157 9.44033 593.169 10.6729 593.766 12.115C594.364 13.5571 594.52 15.144 594.216 16.675C593.911 18.2059 593.16 19.6123 592.056 20.716C590.952 21.8198 589.546 22.5715 588.015 22.8759C586.484 23.1804 584.897 23.024 583.455 22.4265C582.013 21.8291 580.78 20.8173 579.913 19.5193C579.046 18.2213 578.583 16.6953 578.583 15.1344C578.586 13.0424 579.418 11.0367 580.897 9.55743C582.376 8.07816 584.382 7.24608 586.474 7.24375ZM586.474 30.2687C589.467 30.269 592.394 29.3816 594.883 27.7188C597.372 26.0559 599.312 23.6923 600.457 20.9269C601.603 18.1615 601.903 15.1184 601.319 12.1826C600.735 9.24671 599.294 6.54991 597.177 4.4332C595.061 2.3165 592.364 0.874966 589.428 0.290901C586.493 -0.293163 583.45 0.00647424 580.684 1.15192C577.919 2.29737 575.555 4.23718 573.892 6.72604C572.229 9.2149 571.341 12.141 571.341 15.1344C571.344 19.1474 572.94 22.9951 575.777 25.8332C578.614 28.6713 582.461 30.2679 586.474 30.2725" fill="#FF6138"/>
            <path d="M647.394 31.4231V59.9559H674.216V53.5211H655.625V31.4231H647.394Z" fill="#FF6138"/>
            <path d="M942.326 53.2435C948.345 53.2435 951.355 50.7125 951.355 45.6506C951.355 40.6422 948.467 38.138 942.689 38.138H938.865V53.2435H942.326ZM799.749 59.9547V31.4231H942.529C948.229 31.4231 952.552 32.6285 955.497 35.0393C958.442 37.4501 959.914 41.0002 959.913 45.6895C960.023 47.6889 959.661 49.686 958.855 51.5192C958.05 53.3523 956.823 54.9698 955.276 56.2405C952.186 58.7183 947.805 59.9572 942.132 59.9572L799.749 59.9547Z" fill="#FF6138"/>
            <path d="M754.35 38.0603L758.466 48.291H750.232L754.35 38.0603ZM687.868 31.427L675.433 59.9586H745.631L747.79 54.6454H760.938L763.054 59.9586H771.565L759.139 31.427H687.868Z" fill="#FF6138"/>
            <path d="M797.727 60V31.4232H791.108V44.8983C789.487 41.1012 787.504 35.4991 784.443 32.9116C782.917 31.7136 781.045 31.0398 779.105 30.9905C777.166 30.9411 775.262 31.5189 773.677 32.6378C768.225 36.3482 767.239 46.7058 769.427 52.3355C771.405 57.4263 776.461 60.0766 781.759 59.956C781.759 57.3912 781.759 52.2639 781.759 52.2639C781.759 52.2639 775.448 52.5829 775.448 45.4522C775.448 40.3312 778.866 38.3768 781.108 39.9343C782.453 40.8688 784.188 45.0126 784.188 45.0126C784.188 45.0126 786.568 50.2014 787.745 52.7877C788.839 55.1905 790.014 57.5984 791.106 60H797.727Z" fill="#FF6138"/>
            <path d="M863.288 0.867982H834.75V7.30282H844.904V29.4021H853.135V7.30282H863.288V0.867982Z" fill="#FF6138"/>
            <path d="M833.03 7.30282V0.867982H729.531V29.4021H833.021V22.9685H737.764V18.2771H830.718V11.4378H737.764V7.30282H833.03Z" fill="#FF6138"/>
            <path d="M644.369 29.4021V12.7768L636.518 29.4021H629.982L622.132 12.8572V29.4021H614.069V0.867982H624.126L633.42 20.2906L642.671 0.867982H727.506V29.4021H644.369Z" fill="#FF6138"/>
            <path d="M913.196 12.6976C911.968 13.3186 910.595 13.5947 909.223 13.4964H901.828V6.78402H909.304C910.668 6.67818 912.034 6.94841 913.255 7.56529C913.656 7.84833 913.975 8.23129 914.183 8.67616C914.39 9.12103 914.477 9.61233 914.435 10.1013C914.477 10.6054 914.384 11.1114 914.166 11.5678C913.948 12.0243 913.613 12.415 913.196 12.7001V12.6976ZM922.406 27.1574L917.484 18.1351C919.023 17.5024 920.347 16.4396 921.297 15.0741C922.169 13.6521 922.602 12.0043 922.541 10.3374C922.541 4.02276 918.276 0.865846 909.745 0.866683H865.029V29.4008H901.832V19.7291H909.628L914.15 29.4008H922.417L922.406 27.1574Z" fill="#FF6138"/>
            <path d="M938.552 7.24375C940.113 7.24375 941.639 7.70664 942.937 8.57386C944.234 9.44109 945.246 10.6737 945.843 12.1158C946.441 13.558 946.597 15.1448 946.292 16.6757C945.988 18.2066 945.236 19.6128 944.132 20.7165C943.028 21.8201 941.622 22.5717 940.091 22.876C938.56 23.1804 936.973 23.0239 935.531 22.4264C934.089 21.8289 932.857 20.8172 931.99 19.5192C931.123 18.2212 930.66 16.6953 930.66 15.1344C930.663 13.0421 931.495 11.0363 932.974 9.55699C934.454 8.07768 936.46 7.24575 938.552 7.24375ZM938.552 30.2687C941.545 30.2687 944.472 29.3811 946.96 27.7181C949.449 26.0552 951.389 23.6915 952.534 20.926C953.68 18.1606 953.98 15.1176 953.396 12.1818C952.812 9.24603 951.37 6.54934 949.254 4.43276C947.137 2.31618 944.441 0.874772 941.505 0.290809C938.569 -0.293153 935.526 0.00655745 932.76 1.15204C929.995 2.29753 927.631 4.23734 925.968 6.72617C924.305 9.215 923.418 12.1411 923.418 15.1344C923.421 19.1476 925.016 22.9955 927.854 25.8337C930.691 28.6718 934.539 30.2682 938.552 30.2725" fill="#FF6138"/>
            <path d="M98.0653 31.4231V59.9559H124.889V53.5211H106.298V31.4231H98.0653Z" fill="#FF6138"/>
            <path d="M401.379 53.2435C407.398 53.2435 410.408 50.7125 410.409 45.6506C410.409 40.6422 407.52 38.138 401.742 38.138H397.92V53.2435H401.379ZM337.934 59.9547V31.4231H401.578C407.278 31.4231 411.6 32.6285 414.545 35.0393C417.49 37.4501 418.962 41.0002 418.962 45.6895C419.072 47.6889 418.709 49.686 417.904 51.5192C417.098 53.3523 415.872 54.9698 414.324 56.2405C411.235 58.7183 406.854 59.9572 401.181 59.9572L337.934 59.9547Z" fill="#FF6138"/>
            <path d="M292.528 38.0603L296.646 48.291H288.415L292.528 38.0603ZM138.534 31.427L126.106 59.9586H283.818L285.977 54.6454H299.124L301.24 59.9586H309.751L297.325 31.427H138.534Z" fill="#FF6138"/>
            <path d="M335.912 60V31.4232H329.292V44.8983C327.672 41.1012 325.689 35.4991 322.628 32.9116C321.102 31.7136 319.23 31.0398 317.29 30.9905C315.351 30.9411 313.447 31.5189 311.862 32.6378C306.409 36.3482 305.423 46.7058 307.611 52.3355C309.59 57.4263 314.645 60.0766 319.943 59.956C319.943 57.3912 319.943 52.2639 319.943 52.2639C319.943 52.2639 313.633 52.5829 313.633 45.4522C313.633 40.3312 317.051 38.3768 319.293 39.9343C320.638 40.8688 322.373 45.0126 322.373 45.0126C322.373 45.0126 324.753 50.2014 325.93 52.7877C327.024 55.1905 328.198 57.5984 329.291 60H335.912Z" fill="#FF6138"/>
            <path d="M254.375 0.867982H225.837V7.30282H235.991V29.4021H244.222V7.30282H254.375V0.867982Z" fill="#FF6138"/>
            <path d="M224.116 7.30282V0.867982H170.891V29.4021H224.105V22.9685H179.124V18.2771H221.802V11.4378H179.124V7.30282H224.116Z" fill="#FF6138"/>
            <path d="M142.058 29.4021V12.7768L134.208 29.4021H127.673L119.821 12.8572V29.4021H111.758V0.867982H121.816L131.109 20.2906L140.361 0.867982H168.869V29.4021H142.058Z" fill="#FF6138"/>
            <path d="M346.645 12.6976C345.418 13.3186 344.045 13.5947 342.672 13.4964H335.278V6.78402H342.755C344.118 6.67835 345.484 6.94812 346.704 7.56404C347.105 7.84719 347.425 8.23035 347.633 8.67546C347.84 9.12057 347.927 9.61213 347.885 10.1013C347.926 10.6052 347.833 11.111 347.615 11.5672C347.398 12.0235 347.063 12.4139 346.645 12.6988V12.6976ZM355.856 27.1562L350.935 18.1339C352.471 17.5003 353.792 16.4381 354.741 15.0741C355.613 13.6521 356.045 12.0043 355.984 10.3374C355.984 4.02276 351.719 0.865846 343.19 0.866683H256.115V29.4008H335.278V19.7291H343.074L347.59 29.4008H355.856V27.1562Z" fill="#FF6138"/>
            <path d="M371.996 7.24375C373.557 7.2435 375.083 7.70618 376.381 8.57325C377.679 9.44033 378.691 10.6729 379.289 12.115C379.886 13.5571 380.042 15.144 379.738 16.675C379.433 18.2059 378.682 19.6123 377.578 20.716C376.474 21.8198 375.068 22.5715 373.537 22.8759C372.006 23.1804 370.419 23.024 368.977 22.4265C367.535 21.8291 366.302 20.8173 365.435 19.5193C364.568 18.2213 364.106 16.6953 364.106 15.1344C364.108 13.0424 364.94 11.0367 366.419 9.55743C367.899 8.07816 369.904 7.24608 371.996 7.24375ZM371.996 30.2687C374.99 30.269 377.916 29.3816 380.405 27.7188C382.894 26.0559 384.834 23.6923 385.98 20.9269C387.125 18.1615 387.425 15.1184 386.841 12.1826C386.258 9.24671 384.816 6.54991 382.7 4.4332C380.583 2.3165 377.887 0.874966 374.951 0.290901C372.015 -0.293163 368.972 0.00647424 366.206 1.15192C363.441 2.29737 361.077 4.23718 359.414 6.72604C357.751 9.2149 356.863 12.141 356.863 15.1344C356.867 19.1474 358.462 22.9951 361.299 25.8332C364.136 28.6713 367.983 30.2679 371.996 30.2725" fill="#FF6138"/>
            <path d="M-123.485 31.4231V59.9559H-96.663V53.5211H-115.254V31.4231H-123.485Z" fill="#FF6138"/>
            <path d="M69.9735 53.2435C75.9926 53.2435 79.003 50.7125 79.0047 45.6506C79.0047 40.6422 76.1157 38.138 70.3378 38.138H66.5143V53.2435H69.9735ZM-11.6257 59.9547V31.4231H70.172C75.8737 31.4231 80.1967 32.6285 83.1409 35.0393C86.0851 37.4501 87.5572 41.0002 87.5572 45.6895C87.6675 47.6889 87.3051 49.686 86.4994 51.5192C85.6937 53.3523 84.4674 54.9698 82.9198 56.2405C79.8299 58.7183 75.4483 59.9572 69.7751 59.9572L-11.6257 59.9547Z" fill="#FF6138"/>
            <path d="M-57.0329 38.0602L-52.9155 48.2908H-61.1477L-57.0329 38.0602ZM-83.0146 31.4231L-95.4384 59.9547H-65.7449L-63.5845 54.6415H-50.4385L-48.3208 59.9547H-39.8109L-52.2297 31.4231H-83.0146Z" fill="#FF6138"/>
            <path d="M-13.6482 60V31.4232H-20.2664V44.8983C-21.888 41.1012 -23.8714 35.4991 -26.9324 32.9116C-28.4585 31.7136 -30.3304 31.0398 -32.2699 30.9905C-34.2094 30.9411 -36.1132 31.5189 -37.6982 32.6378C-43.1507 36.3482 -44.1355 46.7058 -41.9487 52.3355C-39.9704 57.4263 -34.9147 60.0766 -29.6166 59.956C-29.6166 57.3912 -29.6166 52.2639 -29.6166 52.2639C-29.6166 52.2639 -35.9284 52.5829 -35.9284 45.4522C-35.9284 40.3312 -32.5106 38.3768 -30.2685 39.9343C-28.9245 40.8688 -27.1886 45.0126 -27.1886 45.0126C-27.1886 45.0126 -24.8021 50.2014 -23.6315 52.7877C-22.5362 55.1905 -21.363 57.5984 -20.2702 60H-13.6482Z" fill="#FF6138"/>
            <path d="M-17.9138 0.867982H-46.453V7.30282H-36.2989V29.4021H-28.0679V7.30282H-17.9138V0.867982Z" fill="#FF6138"/>
            <path d="M-48.1757 7.30282V0.867982H-86.9681V29.4021H-48.1845V22.9685H-78.7358V18.2771H-50.4881V11.4378H-78.7358V7.30282H-48.1757Z" fill="#FF6138"/>
            <path d="M-105.398 0.867982L-114.648 20.2906L-123.943 0.867982H-134V29.4021H-125.937V12.8572L-118.087 29.4021H-111.55L-103.7 12.778V29.4021H-88.9926V0.867982H-105.398Z" fill="#FF6138"/>
            <path d="M60.386 12.6976C59.1588 13.3185 57.7861 13.5946 56.4143 13.4965H49.0199V6.78406H56.4947C57.858 6.6779 59.2244 6.94769 60.4451 7.56408C60.8461 7.84723 61.1661 8.2304 61.3732 8.6755C61.5804 9.12061 61.6674 9.61217 61.6258 10.1013C61.6669 10.6052 61.5739 11.111 61.3561 11.5673C61.1383 12.0235 60.8036 12.414 60.386 12.6989V12.6976ZM69.5968 27.1562L64.6743 18.1339C66.213 17.5015 67.5369 16.4392 68.4877 15.0741C69.3597 13.6522 69.7923 12.0044 69.7312 10.3375C69.7337 4.02364 65.4685 0.867145 56.9356 0.867983H-16.1801V29.4008H49.0186V19.7291H56.8138L61.3356 29.4008H69.6005L69.5968 27.1562Z" fill="#FF6138"/>
            <path d="M85.7437 7.24375C87.3046 7.24375 88.8305 7.70664 90.1283 8.57386C91.4261 9.44109 92.4377 10.6737 93.035 12.1158C93.6322 13.558 93.7885 15.1448 93.4838 16.6757C93.1792 18.2066 92.4275 19.6128 91.3237 20.7165C90.2198 21.8201 88.8135 22.5717 87.2825 22.876C85.7516 23.1804 84.1648 23.0239 82.7227 22.4264C81.2807 21.8289 80.0482 20.8172 79.1812 19.5192C78.3142 18.2212 77.8516 16.6953 77.8518 15.1344C77.8541 13.0421 78.6864 11.0363 80.1659 9.55699C81.6455 8.07768 83.6515 7.24575 85.7437 7.24375ZM85.7437 30.2687C88.737 30.2687 91.6631 29.3811 94.1519 27.7181C96.6407 26.0552 98.5806 23.6915 99.726 20.926C100.872 18.1606 101.171 15.1176 100.587 12.1818C100.003 9.24603 98.5619 6.54934 96.4453 4.43276C94.3288 2.31618 91.632 0.874772 88.6963 0.290809C85.7605 -0.293153 82.7175 0.00655745 79.952 1.15204C77.1866 2.29753 74.8229 4.23734 73.1599 6.72617C71.4969 9.215 70.6093 12.1411 70.6093 15.1344C70.6126 19.1476 72.2081 22.9955 75.0455 25.8337C77.8829 28.6718 81.7305 30.2682 85.7437 30.2725" fill="#FF6138"/>
        </svg>