<svg xmlns="http://www.w3.org/2000/svg" width="25" height="25" viewBox="0 0 25 25">
  <g id="Group_792" data-name="Group 792" transform="translate(-59 -3153)">
    <path id="Path_581" data-name="Path 581" d="M8.02,0H7.81L0,7.81v.28H0V25H17.18L25,17.19h0V0ZM9.38,1.56H23.44V15.62H9.38Zm-1.57.65V16.08L1.56,22.33V8.46Zm8.73,21.23H2.67l6.25-6.25H22.79Z" transform="translate(59 3153)" fill="#419884"/>
    <path id="Path_582" data-name="Path 582" d="M21.5,7.92,13.69,3.23a.786.786,0,0,0-1.19.67v9.37a.778.778,0,0,0,.4.68.746.746,0,0,0,.38.1.8.8,0,0,0,.4-.11l7.81-4.69a.776.776,0,0,0,.38-.67A.785.785,0,0,0,21.5,7.92ZM14.06,11.9V5.29L19.57,8.6Z" transform="translate(59 3153)" fill="#419884"/>
  </g>
</svg>
