<svg xmlns:xlink="http://www.w3.org/1999/xlink" xmlns="http://www.w3.org/2000/svg" width="1000" height="400" viewBox="0 0 1000 400"><rect x="-8.151" y="-6.944" width="1017.345" height="413.18" fill="#ff6138" opacity="0.92"/><polygon points="271.445 203.36 271.445 279.214 342.754 279.214 342.754 262.109 293.331 262.109 293.331 249.64 293.331 203.36 271.445 203.36" fill="#ff6138"/><path d="M763.482,261.37q24,0,24.007-20.186,0-19.971-23.048-19.972H754.279V261.37ZM604.71,279.214V203.359h159.3q22.732,0,34.477,9.614t11.741,28.314q0,18.168-12.328,28.046t-34.945,9.881Z" fill="#ff6138"/><path d="M484,221l10.943,27.2H473.057ZM379.039,203.36,346,279.214H460.841l5.741-14.126h34.953l5.627,14.126h22.625L496.753,203.36Z" fill="#ff6138"/><path d="M599.333,279.334V203.36h-17.6v35.825c-4.308-10.094-9.582-24.989-17.72-31.869s-20.139-6.5-28.621-.727c-14.5,9.864-17.116,37.409-11.3,52.368,5.261,13.533,18.7,20.581,32.786,20.258,0-6.816-.006-20.448-.006-20.448s-16.779.848-16.779-18.11c0-13.613,9.089-18.812,15.047-14.669,3.576,2.483,8.19,13.5,8.19,13.5s6.327,13.8,9.457,20.673c2.909,6.388,6.028,12.787,8.936,19.174Z" fill="#ff6138"/><polygon points="554.579 122.127 478.709 122.127 478.709 139.232 505.704 139.232 505.704 197.985 527.586 197.985 527.586 139.232 554.579 139.232 554.579 122.127" fill="#ff6138"/><polygon points="474.136 139.232 474.136 122.126 384.614 122.126 384.614 197.986 474.111 197.986 474.111 180.881 406.503 180.881 406.503 168.41 467.987 168.41 467.987 150.225 406.503 150.225 406.503 139.232 474.136 139.232" fill="#ff6138"/><polygon points="270.833 197.986 270.833 153.787 249.96 197.986 232.586 197.986 211.714 154 211.714 197.986 190.279 197.986 190.279 122.128 217.017 122.128 241.725 173.762 266.32 122.128 379.238 122.128 379.238 197.986 270.833 197.986" fill="#ff6138"/><path d="M617.956,153.578q-3.318,2.12-10.56,2.122H587.737V137.851h19.876q7.354,0,10.5,2.074t3.139,6.745q0,4.778-3.3,6.908m24.488,38.434-13.086-23.986a23.01,23.01,0,0,0,10.136-8.127,22.516,22.516,0,0,0,3.306-12.593q0-25.182-34.016-25.179H559.2v75.858h28.537v-25.71h20.726l12.006,25.71h21.975Z" fill="#ff6138"/><path d="M685.364,139.077a20.98,20.98,0,1,1-20.979,20.979,21,21,0,0,1,20.979-20.979m0,61.213a40.234,40.234,0,1,0-40.235-40.234,40.279,40.279,0,0,0,40.235,40.234" fill="#ff6138"/><polygon points="847.332 203.36 847.332 279.214 918.641 279.214 918.641 262.109 869.216 262.109 869.216 249.64 869.216 203.36 847.332 203.36" fill="#ff6138"/><path d="M1131.667,221l10.945,27.2h-21.891ZM954.924,203.36l-33.043,75.854h186.624l5.742-14.126H1149.2l5.628,14.126h22.626l-33.036-75.854Z" fill="#ff6138"/><polygon points="839.294 197.985 839.294 153.787 818.421 197.985 801.047 197.985 780.174 154 780.174 197.985 758.739 197.985 758.739 122.127 785.478 122.127 810.185 173.762 834.781 122.127 1060.317 122.127 1060.317 197.985 839.294 197.985" fill="#ff6138"/><path d="M193.284,261.37q24.006,0,24.009-20.186,0-19.971-23.048-19.972H184.081V261.37ZM24.613,279.214V203.359h169.2q22.733,0,34.478,9.614t11.741,28.314q0,18.168-12.329,28.046t-34.945,9.881Z" fill="#ff6138"/><path d="M19.236,279.334V203.36H1.639v35.825c-4.308-10.094-9.582-24.989-17.72-31.869s-20.139-6.5-28.621-.727C-59.2,216.453-61.818,244-56,258.957c5.26,13.533,18.7,20.581,32.786,20.258,0-6.816-.006-20.448-.006-20.448S-40,259.615-40,240.657c0-13.613,9.089-18.812,15.047-14.669,3.577,2.483,8.19,13.5,8.19,13.5s6.328,13.8,9.457,20.673c2.909,6.388,6.028,12.787,8.936,19.174Z" fill="#ff6138"/><path d="M47.76,153.578Q44.441,155.7,37.2,155.7H17.541V137.851H37.418q7.353,0,10.5,2.074t3.14,6.745q0,4.778-3.3,6.908m24.487,38.434L59.163,168.026A23.015,23.015,0,0,0,69.3,159.9,22.516,22.516,0,0,0,72.6,147.306q0-25.182-34.015-25.179H-192.919v75.858H17.541v-25.71H38.266l12.007,25.71H72.247Z" fill="#ff6138"/><path d="M115.167,139.077a20.98,20.98,0,1,1-20.979,20.979,21,21,0,0,1,20.979-20.979m0,61.213a40.234,40.234,0,1,0-40.234-40.234,40.278,40.278,0,0,0,40.234,40.234" fill="#ff6138"/><path d="M191.637,96.446q24,0,24.007-20.186,0-19.971-23.048-19.971H182.434V96.446ZM32.866,114.29V38.436h159.3q22.733,0,34.477,9.614t11.741,28.313q0,18.17-12.328,28.047t-34.944,9.88Z" fill="#ff6138"/><path d="M27.488,114.41V38.437H9.892V74.261C5.583,64.167.309,49.273-7.828,42.392s-20.139-6.5-28.621-.726c-14.5,9.863-17.116,37.408-11.3,52.367,5.262,13.533,18.7,20.581,32.786,20.258,0-6.816,0-20.448,0-20.448s-16.779.849-16.779-18.11c0-13.612,9.088-18.811,15.046-14.669,3.577,2.483,8.191,13.5,8.191,13.5S-2.184,88.36.945,95.237c2.91,6.388,6.029,12.787,8.936,19.173Z" fill="#ff6138"/><path d="M46.112-11.345q-3.319,2.12-10.561,2.122H15.893v-17.85H35.768q7.356,0,10.5,2.075t3.14,6.744q0,4.779-3.3,6.909M70.6,27.089,57.514,3.1A23,23,0,0,0,67.649-5.025a22.516,22.516,0,0,0,3.306-12.593Q70.955-42.8,36.94-42.8H-12.645V33.061H15.893V7.351H36.619l12.006,25.71H70.6Z" fill="#ff6138"/><path d="M113.519-25.846A21,21,0,0,1,134.5-4.868a21,21,0,0,1-20.979,20.981A21,21,0,0,1,92.54-4.868a21,21,0,0,1,20.979-20.978m0,61.213A40.279,40.279,0,0,0,153.753-4.868,40.279,40.279,0,0,0,113.519-45.1,40.279,40.279,0,0,0,73.285-4.868a40.279,40.279,0,0,0,40.234,40.235" fill="#ff6138"/><polygon points="275.488 38.436 275.488 114.291 346.796 114.291 346.796 97.185 297.371 97.185 297.371 84.716 297.371 38.436 275.488 38.436" fill="#ff6138"/><path d="M1059.591,96.446q24,0,24.007-20.186,0-19.971-23.049-19.971h-10.163V96.446ZM680.531,114.29V38.436h379.587q22.733,0,34.477,9.614t11.74,28.313q0,18.17-12.327,28.047t-34.945,9.88Z" fill="#ff6138"/><path d="M559.823,56.073l10.944,27.2H548.876ZM383.08,38.436l-33.043,75.855H536.661l5.742-14.126h34.951l5.629,14.126h22.625L572.573,38.436Z" fill="#ff6138"/><path d="M675.154,114.41V38.437h-17.6V74.261c-4.308-10.094-9.582-24.988-17.72-31.869s-20.139-6.5-28.621-.726c-14.5,9.863-17.116,37.408-11.3,52.367,5.259,13.533,18.7,20.581,32.785,20.258,0-6.816,0-20.448,0-20.448s-16.779.849-16.779-18.11c0-13.612,9.088-18.811,15.047-14.669,3.576,2.483,8.19,13.5,8.19,13.5s6.327,13.8,9.457,20.674c2.909,6.388,6.028,12.787,8.936,19.173Z" fill="#ff6138"/><polygon points="849.45 -42.797 773.58 -42.797 773.58 -25.691 800.575 -25.691 800.575 33.061 822.457 33.061 822.457 -25.691 849.45 -25.691 849.45 -42.797" fill="#ff6138"/><polygon points="769.007 -25.692 769.007 -42.797 493.85 -42.797 493.85 33.063 768.983 33.063 768.983 15.957 515.737 15.957 515.737 3.486 762.858 3.486 762.858 -14.698 515.737 -14.698 515.737 -25.692 769.007 -25.692" fill="#ff6138"/><polygon points="267.449 33.062 267.449 -11.137 246.576 33.062 229.202 33.062 208.33 -10.924 208.33 33.062 186.895 33.062 186.895 -42.796 213.633 -42.796 238.34 8.838 262.936 -42.796 488.473 -42.796 488.473 33.062 267.449 33.062" fill="#ff6138"/><path d="M982.132-11.345q-3.319,2.12-10.56,2.122H951.913v-17.85h19.875q7.356,0,10.5,2.075t3.14,6.744q0,4.778-3.3,6.909m24.487,38.433L993.534,3.1a23.009,23.009,0,0,0,10.136-8.127,22.516,22.516,0,0,0,3.305-12.593q0-25.182-34.015-25.179H854.072V33.061h97.841V7.351h20.726l12.006,25.71h21.974Z" fill="#ff6138"/><polygon points="508.751 368.283 508.751 444.138 580.06 444.138 580.06 427.032 530.636 427.032 530.636 414.564 530.636 368.283 508.751 368.283" fill="#ff6138"/><path d="M1025.749,385.92l10.944,27.2h-21.888ZM616.343,368.283,583.3,444.138h419.289l5.74-14.126h34.953l5.627,14.126h22.626L1038.5,368.283Z" fill="#ff6138"/><polygon points="924.304 287.05 848.434 287.05 848.434 304.156 875.429 304.156 875.429 362.908 897.311 362.908 897.311 304.156 924.304 304.156 924.304 287.05" fill="#ff6138"/><polygon points="843.861 304.156 843.861 287.05 702.361 287.05 702.361 362.91 843.836 362.91 843.836 345.805 724.25 345.805 724.25 333.334 837.712 333.334 837.712 315.149 724.25 315.149 724.25 304.156 843.861 304.156" fill="#ff6138"/><polygon points="625.707 362.909 625.707 318.711 604.836 362.909 587.46 362.909 566.587 318.924 566.587 362.909 545.153 362.909 545.153 287.051 571.891 287.051 596.598 338.686 621.194 287.051 696.984 287.051 696.984 362.909 625.707 362.909" fill="#ff6138"/><path d="M1169.6,318.5q-3.318,2.12-10.56,2.122h-19.659v-17.85h19.877q7.353,0,10.5,2.075t3.14,6.744q0,4.779-3.3,6.909m24.488,38.434-13.084-23.986a23.01,23.01,0,0,0,10.134-8.128,22.514,22.514,0,0,0,3.306-12.593q0-25.182-34.016-25.179H928.925v75.858h210.46V337.2h20.726l12.006,25.71h21.975Z" fill="#ff6138"/><path d="M434.059,426.293q24,0,24.007-20.186,0-19.971-23.048-19.971H424.856v40.157ZM217.122,444.138V368.283H434.586q22.732,0,34.477,9.614T480.8,406.21q0,18.17-12.328,28.047t-34.944,9.881Z" fill="#ff6138"/><path d="M96.413,385.92l10.947,27.2H85.469ZM27.34,368.283-5.7,444.138H73.253L79,430.012h34.952l5.628,14.126H142.2l-33.032-75.855Z" fill="#ff6138"/><path d="M211.745,444.257V368.284h-17.6v35.824c-4.308-10.093-9.582-24.988-17.72-31.869s-20.139-6.5-28.621-.726c-14.5,9.863-17.116,37.408-11.3,52.368,5.26,13.532,18.7,20.58,32.786,20.257,0-6.816-.006-20.448-.006-20.448s-16.779.849-16.779-18.109c0-13.613,9.088-18.812,15.047-14.67,3.575,2.484,8.19,13.5,8.19,13.5s6.327,13.8,9.457,20.673c2.909,6.388,6.028,12.787,8.936,19.173Z" fill="#ff6138"/><polygon points="200.405 287.05 124.535 287.05 124.535 304.156 151.53 304.156 151.53 362.908 173.411 362.908 173.411 304.156 200.405 304.156 200.405 287.05" fill="#ff6138"/><polygon points="119.962 304.156 119.962 287.05 16.828 287.05 16.828 362.91 119.938 362.91 119.938 345.805 38.715 345.805 38.715 333.334 113.813 333.334 113.813 315.149 38.715 315.149 38.715 304.156 119.962 304.156" fill="#ff6138"/><polygon points="-32.164 287.051 -56.758 338.685 -81.467 287.051 -108.205 287.051 -108.205 362.911 -86.771 362.911 -86.771 318.923 -65.898 362.911 -48.522 362.911 -27.649 318.712 -27.649 362.911 11.45 362.911 11.45 287.051 -32.164 287.051" fill="#ff6138"/><path d="M408.579,318.5q-3.32,2.12-10.561,2.122H378.36v-17.85h19.875q7.356,0,10.5,2.075t3.14,6.744q0,4.779-3.3,6.909m24.487,38.434L419.98,332.95a23.005,23.005,0,0,0,10.136-8.128,22.514,22.514,0,0,0,3.306-12.593q0-25.182-34.015-25.179H205.025v75.858H378.36V337.2h20.725l12.007,25.71h21.974Z" fill="#ff6138"/><path d="M475.986,304a20.98,20.98,0,1,1-20.979,20.979A21,21,0,0,1,475.986,304m0,61.213a40.235,40.235,0,1,0-40.234-40.234,40.279,40.279,0,0,0,40.234,40.234" fill="#ff6138"/></svg>