<?xml version="1.0" encoding="UTF-8"?>
<svg id="Layer_2" data-name="Layer 2" xmlns="http://www.w3.org/2000/svg" viewBox="0 0 566.93 212.01">
  <defs>
    <style>
      .cls-1 {
        fill: #f9b000;
      }

      .cls-1, .cls-2, .cls-3, .cls-4, .cls-5, .cls-6 {
        stroke-width: 0px;
      }

      .cls-2 {
        fill: #59a5d7;
      }

      .cls-3 {
        fill: #a82571;
      }

      .cls-4 {
        fill: #9f6e26;
      }

      .cls-5 {
        fill: #009e3d;
      }

      .cls-6 {
        fill: #ec6839;
      }
    </style>
  </defs>
  <g id="Layer_1-2" data-name="Layer 1">
    <g>
      <polygon class="cls-3" points="72.05 .02 49.31 58.92 25.33 .02 0 .02 0 87.2 18.44 87.2 18.44 30.15 41.19 87.2 56.93 87.2 79.68 29.41 79.68 87.2 98.74 87.2 98.74 .02 72.05 .02"/>
      <g>
        <path class="cls-6" d="m151.82,40.95c-1.72,4.8-5.53,7.99-12.3,7.99-7.25,0-13.53-4.92-13.89-11.8h42.54c.12-.37.37-3.2.37-5.78,0-19.67-11.68-31.35-30.62-31.35-15.86,0-30.49,12.54-30.49,32.22s15,32.58,31.85,32.58c15.49,0,25.21-8.85,28.16-19.43l-15.62-4.43Zm-25.82-15.86c.37-4.55,4.3-10.33,12.17-10.33,8.85,0,12.05,5.66,12.3,10.33h-24.47Z"/>
        <path class="cls-2" d="m205.34.01h-16.72v7.87c0,5.66-3.07,9.96-9.47,9.96h-3.07v16.35h10.82v26.19c0,12.17,7.75,19.67,20.41,19.67,5.9,0,8.98-1.35,9.71-1.72v-15.49c-1.11.25-2.95.61-4.92.61-4.06,0-6.76-1.35-6.76-6.39v-22.87h11.93v-16.35h-11.93V.01Z"/>
        <path class="cls-1" d="m266.72.61c-1.23-.37-3.07-.61-4.92-.61-4.92,0-12.66,1.97-15.86,8.85V.61h-18.07v61.11h18.69v-26.68c0-12.17,6.76-16.6,14.26-16.6,1.84,0,3.81.12,5.9.61V.61Z"/>
        <path class="cls-4" d="m303.41,0c-18.2,0-32.46,13.4-32.46,32.34s14.26,32.46,32.46,32.46,32.46-13.53,32.46-32.46S321.73,0,303.41,0m0,47.58c-7.01,0-13.77-5.04-13.77-15.25s6.76-15.12,13.77-15.12,13.77,4.8,13.77,15.12-6.64,15.25-13.77,15.25"/>
      </g>
      <rect class="cls-5" x="344.43" width="18.69" height="89.02"/>
      <g>
        <path class="cls-3" d="m397.85,51.15c-5.16,0-7.25-3.07-7.25-6.27,0-4.3,2.95-6.15,6.89-6.76l11.56-1.84v2.71c0,9.47-5.66,12.17-11.19,12.17m-25.7-5.04c0,9.71,7.75,18.57,21.15,18.57,8.12,0,14.02-3.44,17.21-8.61,0,4.18.49,6.39.61,6.89h16.85c-.12-.61-.74-4.67-.74-9.47v-29.88c0-12.54-7.25-23.61-27.05-23.61-17.95,0-26.07,11.56-26.8,20.29l16.23,3.32c.37-4.55,3.93-8.98,10.45-8.98,5.9,0,8.98,3.07,8.98,6.64,0,2.09-1.11,3.69-4.43,4.18l-14.39,2.21c-10.08,1.48-18.07,7.62-18.07,18.44"/>
        <path class="cls-6" d="m455.33,27.67c0-6.15,3.93-10.7,10.08-10.7,6.76,0,9.96,4.55,9.96,10.57v35.17h18.69V24.35c0-13.4-6.89-24.35-22.26-24.35-6.27,0-13.77,2.83-17.09,8.61V1.6h-18.07v61.11h18.69V27.67Z"/>
        <path class="cls-2" d="m520.7,58.41c0-10.21,6.52-15.12,13.77-15.12s13.77,4.92,13.77,15.12-6.52,15.25-13.77,15.25-13.77-5.16-13.77-15.25M566.44,0h-18.44v32.71c-1.48-2.34-6.03-6.27-16.48-6.27-17.34,0-29.63,13.65-29.63,31.85s13.03,32.09,30.25,32.09c7.38,0,13.53-3.07,16.35-7.25,0,2.46.37,5.16.49,5.9h17.95c-.12-1.35-.49-5.41-.49-10.94V0Z"/>
        <path class="cls-1" d="m45.25,212.01c27.05,0,38.61-18.44,41.44-30.49l-18.57-5.29c-1.72,6.27-7.75,16.35-22.87,16.35-13.03,0-25.08-9.47-25.08-25.82,0-18.32,13.16-26.68,24.84-26.68,15.37,0,20.9,10.21,22.26,16.23l18.32-5.78c-2.83-12.54-14.39-29.39-40.58-29.39C20.66,121.14,0,139.58,0,166.76s20.17,45.25,45.25,45.25"/>
        <path class="cls-4" d="m134.86,182.24h17.95c-.12-.98-.61-5.41-.61-10.94v-50.17h-18.69v34.8c0,6.15-3.93,10.45-10.21,10.45-6.64,0-9.84-4.67-9.84-10.57v-34.67h-18.69v38.61c0,13.03,8.36,23.85,23.24,23.85,6.15,0,13.16-2.21,16.35-7.5,0,1.6.25,5.04.49,6.15"/>
      </g>
      <rect class="cls-5" x="163.29" y="121.13" width="18.69" height="89.02"/>
      <g>
        <path class="cls-3" d="m220.29,121.13h-16.72v7.87c0,5.66-3.07,9.96-9.47,9.96h-3.07v16.35h10.82v26.19c0,12.17,7.75,19.67,20.41,19.67,5.9,0,8.98-1.35,9.71-1.72v-15.49c-1.11.25-2.95.61-4.92.61-4.06,0-6.76-1.35-6.76-6.39v-22.87h11.93v-16.35h-11.93v-17.83Z"/>
        <path class="cls-6" d="m282.05,182.24h17.95c-.12-.98-.61-5.41-.61-10.94v-50.17h-18.69v34.8c0,6.15-3.93,10.45-10.21,10.45-6.64,0-9.84-4.67-9.84-10.57v-34.67h-18.69v38.61c0,13.03,8.36,23.85,23.24,23.85,6.15,0,13.16-2.21,16.35-7.5,0,1.6.25,5.04.49,6.15"/>
        <path class="cls-2" d="m347.73,121.74c-1.23-.37-3.07-.61-4.92-.61-4.92,0-12.66,1.97-15.86,8.85v-8.24h-18.07v61.11h18.69v-26.68c0-12.17,6.76-16.6,14.26-16.6,1.84,0,3.81.12,5.9.61v-18.44Z"/>
        <path class="cls-1" d="m396.78,162.07c-1.72,4.8-5.53,7.99-12.3,7.99-7.25,0-13.53-4.92-13.89-11.8h42.54c.12-.37.37-3.2.37-5.78,0-19.67-11.68-31.35-30.62-31.35-15.86,0-30.49,12.54-30.49,32.22s15,32.58,31.85,32.58c15.49,0,25.21-8.85,28.16-19.43l-15.62-4.43Zm-25.82-15.86c.37-4.55,4.3-10.33,12.17-10.33,8.85,0,12.05,5.66,12.3,10.33h-24.47Z"/>
        <path class="cls-4" d="m419.49,166.74c.49,6.76,6.64,19.18,25.82,19.18,16.35,0,24.35-10.21,24.35-20.66,0-8.98-6.15-16.6-18.81-19.18l-8.12-1.6c-2.71-.49-4.8-1.97-4.8-4.55,0-3.2,3.07-5.29,6.64-5.29,5.66,0,8.24,3.44,8.73,7.5l15.49-2.83c-.61-7.13-6.76-18.2-24.47-18.2-13.65,0-23.49,9.1-23.49,20.29,0,8.61,5.16,15.98,18.2,18.81l7.01,1.6c4.55.98,6.03,2.83,6.03,5.04,0,2.71-2.34,5.29-7.13,5.29-6.39,0-9.34-4.06-9.59-8.24l-15.86,2.83Z"/>
      </g>
    </g>
  </g>
</svg>