<svg xmlns="http://www.w3.org/2000/svg"><symbol id="arrow-white" viewBox="0 0 19 14"><title>arrow-white</title><path d="M223.919 28.784v-1.568c-2.892-.27-5.297-2.297-5.54-6.216l-1.757.405c.378 2.811 1.946 5.163 4.054 5.811H205v1.568h15.676c-2.108.648-3.676 3-4.054 5.81l1.756.406c.244-3.919 2.649-5.946 5.54-6.216z" transform="translate(-205 -21)" fill="#fff" fill-rule="nonzero"/></symbol><symbol id="arrow" viewBox="0 0 19 14"><title>arrow</title><path d="M223.919 28.784v-1.568c-2.892-.27-5.297-2.297-5.54-6.216l-1.757.405c.378 2.811 1.946 5.163 4.054 5.811H205v1.568h15.676c-2.108.648-3.676 3-4.054 5.81l1.756.406c.244-3.919 2.649-5.946 5.54-6.216z" transform="translate(-205 -21)" fill="currentColor" fill-rule="nonzero"/></symbol><symbol id="email" viewBox="0 0 23 17"><title>email</title><g transform="translate(1 1)" stroke="#000" stroke-width="2" fill="none" fill-rule="evenodd"><rect width="21" height="15" rx="2"/><path stroke-linecap="round" stroke-linejoin="round" d="M.297 1.183l10.314 9.029 10.11-9.029"/></g></symbol><symbol id="facebook" viewBox="0 0 30 30"><title>facebook</title><path d="M15 3C8.373 3 3 8.373 3 15c0 6.016 4.432 10.984 10.206 11.852V18.18h-2.969v-3.154h2.969v-2.099c0-3.475 1.693-5 4.581-5 1.383 0 2.115.103 2.461.149v2.753h-1.97c-1.226 0-1.654 1.163-1.654 2.473v1.724h3.593l-.487 3.154h-3.106v8.697C22.481 26.083 27 21.075 27 15c0-6.627-5.373-12-12-12z"/></symbol><symbol fill="none" id="hr-large" viewBox="0 0 1920 120"><title>hr-large</title><path d="M995.564 62.846v57.066h53.646v-12.87h-37.18V62.846h-16.466zm370.156 43.641c12.04 0 18.06-5.062 18.06-15.186 0-10.016-5.78-15.025-17.33-15.025h-7.65v30.211h6.92zm-119.44 13.423V62.846h119.83c11.4 0 20.05 2.411 25.94 7.233 5.89 4.821 8.83 11.922 8.83 21.3a25.39 25.39 0 01-2.12 11.66 25.5 25.5 0 01-7.15 9.442c-6.18 4.956-14.95 7.434-26.29 7.434l-119.04-.005zm-90.81-43.79l8.22 20.462h-16.46l8.24-20.461zm-78.97-13.274l-24.87 57.064h86.4l4.31-10.627h26.3l4.23 10.627h17.03l-24.85-57.064h-88.55zM1242.22 120V62.846h-13.23v26.95c-3.24-7.593-7.21-18.798-13.33-23.973a18.038 18.038 0 00-21.54-.548c-10.9 7.422-12.87 28.137-8.5 39.396 3.96 10.182 14.07 15.483 24.67 15.241v-15.384s-12.63.638-12.63-13.623c0-10.242 6.84-14.151 11.32-11.036 2.69 1.869 6.17 10.156 6.17 10.156s4.75 10.378 7.11 15.551c2.19 4.805 4.53 9.621 6.72 14.424h13.24zM1208.56 1.736h-57.08v12.87h20.31v44.198h16.46V14.606h20.31V1.736zm-60.52 12.87V1.736h-67.34v57.068h67.33V45.937h-50.86v-9.383h46.25V22.876h-46.25v-8.27h50.87zM995.105 58.804v-33.25l-15.704 33.25h-13.07l-15.701-33.09v33.09h-16.125V1.736h20.114l18.588 38.845 18.504-38.845h84.949v57.068h-81.555zm261.135-33.409a15.175 15.175 0 01-7.94 1.598h-14.79V13.568h14.95c2.73-.212 5.46.328 7.9 1.56a5.7 5.7 0 011.86 2.223c.41.89.58 1.873.5 2.852.08 1.008-.1 2.02-.54 2.932a5.636 5.636 0 01-1.94 2.263v-.003zm18.42 28.918l-9.84-18.045a17.346 17.346 0 007.62-6.12 16.906 16.906 0 002.49-9.473c0-12.63-8.53-18.943-25.59-18.942h-37.3v57.069h21.47V39.458h15.59l9.04 19.344h16.53l-.01-4.49zm32.29-39.825a15.803 15.803 0 0114.59 9.742c1.19 2.884 1.5 6.058.89 9.12a15.701 15.701 0 01-4.32 8.082 15.756 15.756 0 01-8.08 4.32 15.776 15.776 0 01-16.2-6.713 15.822 15.822 0 01-2.66-8.77c0-4.184 1.67-8.195 4.63-11.154a15.8 15.8 0 0111.15-4.627zm0 46.05a30.275 30.275 0 0027.97-18.684 30.26 30.26 0 001.72-17.489 30.303 30.303 0 00-8.28-15.499 30.269 30.269 0 00-46.57 4.586 30.236 30.236 0 00-5.1 16.817 30.25 30.25 0 008.87 21.398 30.293 30.293 0 0021.39 8.878m121.84 2.301v57.066h53.65v-12.87h-37.19V62.846h-16.46zm589.87 43.641c12.03 0 18.05-5.062 18.06-15.186 0-10.016-5.78-15.025-17.34-15.025h-7.64v30.211h6.92zM1733.5 119.91V62.846h285.56c11.4 0 20.05 2.411 25.94 7.233 5.89 4.821 8.83 11.922 8.83 21.3.22 3.999-.5 7.993-2.11 11.66a25.633 25.633 0 01-7.16 9.442c-6.18 4.956-14.95 7.434-26.29 7.434l-284.77-.005zm-90.8-43.79l8.24 20.462h-16.47l8.23-20.461zm-132.96-13.266l-24.87 57.063h140.4l4.32-10.626h26.29l4.23 10.626h17.02l-24.85-57.063h-142.54zM1729.46 120V62.846h-13.24v26.95c-3.24-7.593-7.21-18.798-13.33-23.973a18.032 18.032 0 00-21.53-.547c-10.91 7.42-12.88 28.136-8.5 39.395 3.95 10.182 14.07 15.483 24.66 15.241v-15.384s-12.62.638-12.62-13.623c0-10.242 6.84-14.151 11.32-11.036 2.69 1.869 6.16 10.156 6.16 10.156s4.76 10.378 7.11 15.551c2.19 4.805 4.54 9.621 6.73 14.424h13.24zM1860.58 1.736h-57.08v12.87h20.31v44.198h16.46V14.606h20.31V1.736zm-60.52 12.87V1.736h-206.99v57.068h206.98V45.937h-190.52v-9.383h185.91V22.876h-185.91v-8.27h190.53zm-377.32 44.198v-33.25l-15.7 33.25h-13.07l-15.7-33.09v33.09h-16.13V1.736h20.12l18.58 38.845 18.51-38.845h169.67v57.068h-166.28zm537.66-33.409a15.232 15.232 0 01-7.95 1.598h-14.79V13.568h14.95a14.94 14.94 0 017.9 1.563 5.536 5.536 0 011.86 2.221c.41.89.59 1.873.51 2.85a5.812 5.812 0 01-.54 2.934 5.807 5.807 0 01-1.94 2.264v-.005zm18.42 28.92l-9.85-18.045a17.305 17.305 0 007.63-6.122 16.988 16.988 0 002.49-9.473c0-12.63-8.53-18.943-25.59-18.942h-89.44v57.069h73.61V39.458h15.59l9.05 19.344h16.53l-.02-4.487zm32.29-39.827c3.12 0 6.17.925 8.77 2.66 2.59 1.734 4.62 4.2 5.81 7.084 1.2 2.884 1.51 6.058.9 9.12a15.772 15.772 0 01-4.32 8.081 15.774 15.774 0 01-17.2 3.42 15.802 15.802 0 01-7.09-5.815 15.732 15.732 0 01-2.65-8.77c0-4.184 1.66-8.195 4.62-11.154a15.801 15.801 0 0111.16-4.627zm0 46.05c5.99 0 11.84-1.776 16.82-5.102a30.294 30.294 0 0011.14-13.584 30.345 30.345 0 001.73-17.488 30.243 30.243 0 00-8.29-15.498 30.229 30.229 0 00-15.5-8.284 30.24 30.24 0 00-17.48 1.722 30.257 30.257 0 00-18.69 27.965 30.334 30.334 0 008.87 21.398 30.313 30.313 0 0021.4 8.878M330.132 62.846v57.066h53.646v-12.87h-37.182V62.846h-16.464zm606.629 43.641c12.038 0 18.058-5.062 18.06-15.186 0-10.016-5.778-15.025-17.334-15.025h-7.645v30.211h6.919zM809.87 119.91V62.846h127.288c11.4 0 20.045 2.411 25.935 7.233 5.89 4.821 8.834 11.922 8.833 21.3a25.49 25.49 0 01-9.275 21.102c-6.178 4.956-14.941 7.434-26.287 7.434l-126.494-.005zm-90.811-43.79l8.234 20.462h-16.462l8.228-20.461zM411.07 62.855l-24.858 57.063h315.425l4.318-10.626h26.295l4.233 10.626h17.022l-24.852-57.063H411.07zM805.826 120V62.846h-13.239v26.95c-3.241-7.593-7.207-18.798-13.33-23.973a18.028 18.028 0 00-21.531-.547c-10.905 7.42-12.877 28.136-8.501 39.395 3.956 10.182 14.068 15.483 24.664 15.241v-15.384s-12.621.638-12.621-13.623c0-10.242 6.836-14.151 11.32-11.036 2.69 1.869 6.16 10.156 6.16 10.156s4.76 10.378 7.114 15.551c2.188 4.805 4.537 9.621 6.722 14.424h13.242zM642.751 1.736h-57.076v12.87h20.308v44.198h16.462V14.606h20.306V1.736zm-60.518 12.87V1.736h-106.45v57.068h106.43V45.937H492.25v-9.383h85.355V22.876H492.25v-8.27h89.983zM418.118 58.804v-33.25l-15.701 33.25h-13.071l-15.703-33.09v33.09h-16.125V1.736h20.114l18.588 38.845 18.504-38.845h57.016v57.068h-53.622zm409.175-33.409a15.198 15.198 0 01-7.946 1.598h-14.789V13.568h14.955a14.962 14.962 0 017.898 1.56 5.625 5.625 0 012.361 5.075 5.722 5.722 0 01-2.479 5.195v-.003zm18.422 28.918l-9.843-18.045a17.317 17.317 0 007.612-6.12 16.936 16.936 0 002.487-9.473c0-12.63-8.53-18.943-25.589-18.942H646.233v57.069h158.325V39.458h15.593l9.031 19.344h16.533v-4.49zm32.28-39.825a15.784 15.784 0 11-15.781 15.78 15.802 15.802 0 0115.781-15.78zm0 46.05a30.267 30.267 0 0021.407-51.672 30.27 30.27 0 00-46.572 4.586 30.27 30.27 0 00-5.101 16.817 30.3 30.3 0 0030.266 30.276m-990.965 2.301v57.066h53.644v-12.87h-37.182V62.846h-16.462zm386.918 43.641c12.038 0 18.059-5.062 18.062-15.186 0-10.016-5.778-15.025-17.333-15.025h-7.647v30.211h6.918zM110.749 119.91V62.846h163.596c11.403 0 20.049 2.411 25.938 7.233 5.888 4.821 8.833 11.922 8.833 21.3a25.491 25.491 0 01-9.275 21.102c-6.18 4.956-14.943 7.434-26.29 7.434l-162.802-.005zM19.935 76.12l8.234 20.462H11.705l8.23-20.461zM-32.03 62.847l-24.848 57.064H2.51l4.321-10.627h26.292l4.236 10.627h17.02L29.54 62.846h-61.57zM106.704 120V62.846H93.468v26.95c-3.243-7.593-7.21-18.798-13.332-23.973a18.03 18.03 0 00-21.532-.547C47.7 72.696 45.73 93.412 50.103 104.67c3.957 10.182 14.068 15.483 24.664 15.241v-15.384s-12.623.638-12.623-13.623c0-10.242 6.835-14.151 11.32-11.036 2.687 1.869 6.16 10.156 6.16 10.156s4.772 10.378 7.114 15.551c2.19 4.805 4.537 9.621 6.722 14.424h13.244zM98.173 1.736H41.094v12.87h20.309v44.198h16.462V14.606h20.308V1.736zM37.65 14.606V1.736h-77.586v57.068h77.567V45.937H-23.47v-9.383h56.495V22.876H-23.47v-8.27h61.12zM-76.796 1.736l-18.5 38.845-18.589-38.845H-134v57.068h16.125v-33.09l15.701 33.09H-89.1l15.7-33.248v33.248h29.415V1.736h-32.811zm331.569 23.659a15.194 15.194 0 01-7.943 1.598h-14.789V13.568h14.949c2.727-.212 5.46.327 7.901 1.56a5.625 5.625 0 012.361 5.075 5.722 5.722 0 01-2.479 5.195v-.003zm18.421 28.918l-9.845-18.045a17.31 17.31 0 007.627-6.12 16.936 16.936 0 002.487-9.473c.005-12.628-8.525-18.94-25.591-18.939H101.64v57.066h130.398V39.458h15.59l9.044 19.344h16.53l-.008-4.49zm32.294-39.825a15.786 15.786 0 0115.481 18.864 15.78 15.78 0 01-12.403 12.4 15.784 15.784 0 01-18.861-15.483 15.797 15.797 0 0115.783-15.781zm0 46.05a30.27 30.27 0 0021.404-51.672 30.27 30.27 0 00-51.672 21.403 30.297 30.297 0 0030.268 30.276" fill="#FF6138"/></symbol><symbol fill="none" id="hr" viewBox="0 0 960 60"><title>hr</title><path d="M430.781 31.423v28.533h26.823V53.52h-18.591V31.423h-8.232zm185.078 21.82c6.019 0 9.029-2.53 9.031-7.592 0-5.009-2.889-7.513-8.667-7.513h-3.824v15.105h3.46zm-59.72 6.712V31.423h59.914c5.701 0 10.024 1.206 12.969 3.616 2.945 2.411 4.417 5.961 4.416 10.65a12.743 12.743 0 01-4.637 10.551c-3.089 2.478-7.471 3.717-13.145 3.717l-59.517-.002zM510.731 38.06l4.115 10.23h-8.232l4.117-10.23zm-39.482-6.637l-12.435 28.532h43.198l2.159-5.313h13.148l2.117 5.313h8.512l-12.425-28.532h-44.274zM554.11 60V31.423h-6.618v13.475c-1.62-3.797-3.605-9.399-6.666-11.986a9.015 9.015 0 00-10.766-.274c-5.452 3.71-6.437 14.068-4.25 19.698 1.979 5.09 7.034 7.74 12.332 7.62v-7.692s-6.312.319-6.312-6.812c0-5.12 3.419-7.075 5.66-5.518 1.345.935 3.081 5.079 3.081 5.079s2.379 5.188 3.557 7.775c1.094 2.403 2.267 4.81 3.361 7.212h6.621zM537.277.868h-28.538v6.435h10.154v22.1h8.23v-22.1h10.154V.868zm-30.256 6.435V.868h-33.673v28.534h33.664v-6.434h-25.43v-4.69h23.126v-6.84h-23.126V7.303h25.439zm-76.47 22.099V12.777l-7.852 16.625h-6.535l-7.85-16.545v16.545h-8.063V.868h10.057l9.294 19.423L428.854.868h42.473v28.534h-40.776zm130.567-16.704a7.593 7.593 0 01-3.971.798h-7.395V6.784h7.476a7.474 7.474 0 013.949.78 2.814 2.814 0 011.182 2.537 2.863 2.863 0 01-1.241 2.598v-.001zm9.211 14.458l-4.921-9.022a8.668 8.668 0 003.812-3.06 8.468 8.468 0 001.243-4.737c0-6.314-4.265-9.471-12.794-9.47h-18.651V29.4h10.734v-9.672h7.795l4.522 9.672h8.265l-.005-2.245zm16.145-19.912a7.892 7.892 0 11-7.891 7.89 7.904 7.904 0 017.891-7.89zm0 23.025a15.136 15.136 0 0014.845-18.086 15.133 15.133 0 00-27.427-5.457 15.135 15.135 0 00-2.551 8.408 15.15 15.15 0 0015.133 15.139m60.92 1.15v28.533h26.822V53.52h-18.591V31.423h-8.231zm294.932 21.82c6.019 0 9.029-2.53 9.029-7.592 0-5.009-2.888-7.513-8.666-7.513h-3.824v15.105h3.461zm-142.577 6.712V31.423h142.78c5.7 0 10.023 1.206 12.968 3.616 2.945 2.411 4.417 5.961 4.416 10.65a12.744 12.744 0 01-4.637 10.551c-3.09 2.478-7.471 3.717-13.144 3.717l-142.383-.002zM754.35 38.06l4.116 10.231h-8.234l4.118-10.23zm-66.482-6.633l-12.435 28.532h70.198l2.159-5.314h13.148l2.116 5.314h8.511l-12.426-28.532h-71.271zM797.727 60V31.423h-6.619v13.475c-1.621-3.797-3.604-9.399-6.665-11.986a9.015 9.015 0 00-10.766-.274c-5.452 3.71-6.438 14.068-4.25 19.698 1.978 5.09 7.034 7.74 12.332 7.62v-7.692s-6.311.319-6.311-6.812c0-5.12 3.418-7.075 5.66-5.518 1.345.935 3.08 5.079 3.08 5.079s2.38 5.188 3.557 7.775c1.094 2.403 2.269 4.81 3.361 7.212h6.621zM863.288.868H834.75v6.435h10.154v22.1h8.231v-22.1h10.153V.868zM833.03 7.303V.868H729.531v28.534h103.49v-6.434h-95.257v-4.69h92.954v-6.84h-92.954V7.303h95.266zM644.369 29.402V12.777l-7.851 16.625h-6.536l-7.85-16.545v16.545h-8.063V.868h10.057l9.294 19.423L642.671.868h84.835v28.534h-83.137zm268.827-16.704a7.6 7.6 0 01-3.973.798h-7.395V6.784h7.476a7.477 7.477 0 013.951.781 2.808 2.808 0 011.18 2.536 2.87 2.87 0 01-1.239 2.599v-.002zm9.21 14.46l-4.922-9.023a8.653 8.653 0 003.813-3.06 8.469 8.469 0 001.244-4.738c0-6.314-4.265-9.471-12.796-9.47h-44.716V29.4h36.803v-9.672h7.796l4.522 9.672h8.267l-.011-2.244zm16.146-19.914a7.893 7.893 0 015.58 13.473 7.892 7.892 0 01-13.472-5.583 7.901 7.901 0 017.892-7.89zm0 23.025a15.132 15.132 0 0014.844-18.087A15.139 15.139 0 00941.505.29a15.137 15.137 0 00-15.537 6.435 15.134 15.134 0 00-2.55 8.408 15.147 15.147 0 0015.134 15.139M98.065 31.423v28.533h26.824V53.52h-18.591V31.423h-8.233zm303.314 21.82c6.019 0 9.029-2.53 9.03-7.592 0-5.009-2.889-7.513-8.667-7.513h-3.822v15.105h3.459zm-63.445 6.712V31.423h63.644c5.7 0 10.022 1.206 12.967 3.616 2.945 2.411 4.417 5.961 4.417 10.65a12.744 12.744 0 01-4.638 10.551c-3.089 2.478-7.47 3.717-13.143 3.717l-63.247-.002zM292.528 38.06l4.118 10.231h-8.231l4.113-10.23zm-153.994-6.633l-12.428 28.532h157.712l2.159-5.314h13.147l2.116 5.314h8.511l-12.426-28.532H138.534zM335.912 60V31.423h-6.62v13.475c-1.62-3.797-3.603-9.399-6.664-11.986a9.015 9.015 0 00-10.766-.274c-5.453 3.71-6.439 14.068-4.251 19.698 1.979 5.09 7.034 7.74 12.332 7.62v-7.692s-6.31.319-6.31-6.812c0-5.12 3.418-7.075 5.66-5.518 1.345.935 3.08 5.079 3.08 5.079s2.38 5.188 3.557 7.775c1.094 2.403 2.268 4.81 3.361 7.212h6.621zM254.375.868h-28.538v6.435h10.154v22.1h8.231v-22.1h10.153V.868zm-30.259 6.435V.868h-53.225v28.534h53.214v-6.434h-44.981v-4.69h42.678v-6.84h-42.678V7.303h44.992zm-82.058 22.099V12.777l-7.85 16.625h-6.535l-7.852-16.545v16.545h-8.063V.868h10.058l9.293 19.423L140.361.868h28.508v28.534h-26.811zm204.587-16.704a7.596 7.596 0 01-3.973.798h-7.394V6.784h7.477a7.48 7.48 0 013.949.78 2.811 2.811 0 011.181 2.537 2.861 2.861 0 01-1.24 2.598v-.001zm9.211 14.458l-4.921-9.022a8.66 8.66 0 003.806-3.06 8.468 8.468 0 001.243-4.737c0-6.314-4.265-9.471-12.794-9.47h-87.075V29.4h79.163v-9.672h7.796l4.516 9.672h8.266v-2.245zm16.14-19.912a7.892 7.892 0 11-7.89 7.89 7.899 7.899 0 017.89-7.89zm0 23.025a15.134 15.134 0 10-15.133-15.135 15.154 15.154 0 0015.133 15.139m-495.481 1.15v28.533h26.822V53.52h-18.591V31.423h-8.231zm193.459 21.82c6.019 0 9.029-2.53 9.03-7.592 0-5.009-2.888-7.513-8.666-7.513h-3.824v15.105h3.46zm-81.6 6.712V31.423h81.798c5.702 0 10.025 1.206 12.969 3.616 2.944 2.411 4.416 5.961 4.416 10.65A12.744 12.744 0 0182.92 56.24c-3.09 2.478-7.472 3.717-13.145 3.717l-81.4-.002zM-57.033 38.06l4.117 10.23h-8.232l4.115-10.23zm-25.982-6.637l-12.423 28.532h29.693l2.16-5.313h13.147l2.117 5.313h8.51L-52.23 31.423h-30.785zM-13.648 60V31.423h-6.618v13.475c-1.622-3.797-3.605-9.399-6.666-11.986a9.015 9.015 0 00-10.766-.274c-5.453 3.71-6.438 14.068-4.25 19.698 1.978 5.09 7.033 7.74 12.331 7.62v-7.692s-6.311.319-6.311-6.812c0-5.12 3.417-7.075 5.66-5.518 1.344.935 3.08 5.079 3.08 5.079s2.386 5.188 3.556 7.775c1.096 2.403 2.269 4.81 3.362 7.212h6.622zM-17.914.868h-28.539v6.435h10.154v22.1h8.231v-22.1h10.154V.868zm-30.262 6.435V.868h-38.792v28.534h38.784v-6.434h-30.552v-4.69h28.248v-6.84h-28.248V7.303h30.56zM-105.398.868l-9.25 19.423-9.295-19.423H-134v28.534h8.063V12.857l7.85 16.545h6.537l7.85-16.624v16.624h14.707V.868h-16.405zm165.784 11.83c-1.227.62-2.6.897-3.972.798H49.02V6.784h7.475a7.477 7.477 0 013.95.78 2.814 2.814 0 011.18 2.537 2.863 2.863 0 01-1.239 2.598v-.001zm9.21 14.458l-4.922-9.022a8.658 8.658 0 003.814-3.06 8.467 8.467 0 001.243-4.736c.003-6.314-4.262-9.47-12.795-9.47H-16.18v28.533h65.199v-9.672h7.795l4.522 9.672H69.6l-.003-2.245zM85.744 7.244a7.892 7.892 0 11-7.892 7.89 7.9 7.9 0 017.892-7.89zm0 23.025a15.134 15.134 0 10-15.135-15.135 15.15 15.15 0 0015.135 15.139" fill="#FF6138"/></symbol><symbol id="instagram" viewBox="0 0 1792 1792"><title>instagram</title><path d="M1152 896q0-106-75-181t-181-75-181 75-75 181 75 181 181 75 181-75 75-181zm138 0q0 164-115 279t-279 115-279-115-115-279 115-279 279-115 279 115 115 279zm108-410q0 38-27 65t-65 27-65-27-27-65 27-65 65-27 65 27 27 65zM896 266q-7 0-76.5-.5t-105.5 0-96.5 3-103 10T443 297q-50 20-88 58t-58 88q-11 29-18.5 71.5t-10 103-3 96.5 0 105.5.5 76.5-.5 76.5 0 105.5 3 96.5 10 103T297 1349q20 50 58 88t88 58q29 11 71.5 18.5t103 10 96.5 3 105.5 0 76.5-.5 76.5.5 105.5 0 96.5-3 103-10 71.5-18.5q50-20 88-58t58-88q11-29 18.5-71.5t10-103 3-96.5 0-105.5-.5-76.5.5-76.5 0-105.5-3-96.5-10-103T1495 443q-20-50-58-88t-88-58q-29-11-71.5-18.5t-103-10-96.5-3-105.5 0-76.5.5zm768 630q0 229-5 317-10 208-124 322t-322 124q-88 5-317 5t-317-5q-208-10-322-124t-124-322q-5-88-5-317t5-317q10-208 124-322t322-124q88-5 317-5t317 5q208 10 322 124t124 322q5 88 5 317z"/></symbol><symbol id="search" viewBox="0 0 19 19"><title>Group 2</title><g transform="translate(1 1)" stroke="#000" stroke-width="2" fill="none" fill-rule="evenodd"><circle cx="7" cy="7" r="7"/><path stroke-linecap="round" d="M12 12l5 5"/></g></symbol><symbol id="slider-arrow" viewBox="0 0 19 14"><title>slider-arrow</title><path d="M223.919 28.784v-1.568c-2.892-.27-5.297-2.297-5.54-6.216l-1.757.405c.378 2.811 1.946 5.163 4.054 5.811H205v1.568h15.676c-2.108.648-3.676 3-4.054 5.81l1.756.406c.244-3.919 2.649-5.946 5.54-6.216z" transform="translate(-205 -21)" fill="#fff" fill-rule="nonzero"/></symbol><symbol id="twitter" viewBox="0 0 24 24"><title>Twitter icon</title><path d="M23.954 4.569a10 10 0 01-2.825.775 4.958 4.958 0 002.163-2.723c-.951.555-2.005.959-3.127 1.184a4.92 4.92 0 00-8.384 4.482C7.691 8.094 4.066 6.13 1.64 3.161a4.822 4.822 0 00-.666 2.475c0 1.71.87 3.213 2.188 4.096a4.904 4.904 0 01-2.228-.616v.061a4.923 4.923 0 003.946 4.827 4.996 4.996 0 01-2.212.085 4.937 4.937 0 004.604 3.417 9.868 9.868 0 01-6.102 2.105c-.39 0-.779-.023-1.17-.067a13.995 13.995 0 007.557 2.209c9.054 0 13.999-7.496 13.999-13.986 0-.209 0-.42-.015-.63a9.936 9.936 0 002.46-2.548l-.047-.02z"/></symbol><symbol id="youtube" viewBox="0 0 24 24"><title>YouTube icon</title><path class="a" d="M23.495 6.205a3.007 3.007 0 00-2.088-2.088c-1.87-.501-9.396-.501-9.396-.501s-7.507-.01-9.396.501A3.007 3.007 0 00.527 6.205a31.247 31.247 0 00-.522 5.805 31.247 31.247 0 00.522 5.783 3.007 3.007 0 002.088 2.088c1.868.502 9.396.502 9.396.502s7.506 0 9.396-.502a3.007 3.007 0 002.088-2.088 31.247 31.247 0 00.5-5.783 31.247 31.247 0 00-.5-5.805zM9.609 15.601V8.408l6.264 3.602z"/></symbol></svg>